<svg height="64" viewBox="0 0 64 64" width="64" xmlns="http://www.w3.org/2000/svg" xmlns:xlink="http://www.w3.org/1999/xlink"><clipPath id="a"><path d="m440 0h-400v300h400z"/></clipPath><clipPath id="b"><path d="m440 300h-400v180h400z"/></clipPath><clipPath id="c"><path d="m440 300h-400v180h400z"/></clipPath><clipPath id="d"><path d="m440 50c0-27.6172-22.383-50-50-50h-300c-27.6172 0-50 22.3828-50 50v380c0 27.617 22.3828 50 50 50h240l110-110z"/></clipPath><g transform="matrix(.13333333 0 0 -.13333333 0 64)"><g clip-path="url(#a)"><path d="m90 5c-24.8164 0-45 20.1875-45 45v380c0 24.816 20.1836 45 45 45h237.93l107.07-107.07v-317.93c0-24.8125-20.187-45-45-45z" fill="#f6f6f6"/><path d="m330 480h-240c-27.6172 0-50-22.383-50-50v-380c0-27.6172 22.3828-50 50-50h300c27.617 0 50 22.3828 50 50v320zm-4.141-10 104.141-104.141v-315.859c0-22.0625-17.937-40-40-40h-300c-22.0586 0-40 17.9375-40 40v380c0 22.059 17.9414 40 40 40z" fill="#e0e0e0"/></g><g clip-path="url(#b)"><path d="m90 5c-24.8164 0-45 20.1875-45 45v380c0 24.816 20.1836 45 45 45h237.93l107.07-107.07v-317.93c0-24.8125-20.187-45-45-45z" fill="#2db7ed"/><path d="m330 480h-240c-27.6172 0-50-22.383-50-50v-380c0-27.6172 22.3828-50 50-50h300c27.617 0 50 22.3828 50 50v320zm-4.141-10 104.141-104.141v-315.859c0-22.0625-17.937-40-40-40h-300c-22.0586 0-40 17.9375-40 40v380c0 22.059 17.9414 40 40 40z" fill="#2aa6d9"/></g><g clip-path="url(#c)"><g clip-path="url(#d)"><path d="m344.355 384.973 96.79-96.789v96.789z" fill="#2aa6d9"/><path d="m440 370h-60c-27.617 0-50 22.383-50 50v60h110z" fill="#b1e2f6"/></g></g><g fill="#fff"><path d="m120.691 398.809-6.785-17.012h13.711zm-4.812 18.886h9.629l23.515-57.695h-12.519l-4.617 11.34h-22.141l-4.531-11.34h-12.4416z"/><path d="m144.934 417.695h12.586l14.589-38.359 14.621 38.359h12.606l-21.848-57.695h-10.8z"/><path d="m206.191 417.695h12.442v-57.695h-12.442z"/></g><path d="m350 210-50-22.187v22.187c0 11.047-8.953 20-20 20h-110c-11.047 0-20-8.953-20-20v-90c0-11.047 8.953-20 20-20h110c11.047 0 20 8.953 20 20v22.188l50-22.188z" fill="#e0e0e0"/></g></svg>