<svg height="64" viewBox="0 0 64 64" width="64" xmlns="http://www.w3.org/2000/svg" xmlns:xlink="http://www.w3.org/1999/xlink"><clipPath id="a"><path d="m439.996 300h-399.996v180h399.996z"/></clipPath><clipPath id="b"><path d="m439.996 300h-399.996v180h399.996z"/></clipPath><clipPath id="c"><path d="m440 50c0-27.6172-22.387-50-50-50h-300c-27.6133 0-50 22.3828-50 50v380c0 27.617 22.3867 50 50 50h239.996l110.004-110z"/></clipPath><g transform="matrix(.13333333 0 0 -.13333333 0 64)"><path d="m90 5c-24.8164 0-45 20.1875-45 45v380c0 24.816 20.1836 45 45 45h237.926l107.074-107.07v-317.93c0-24.8125-20.187-45-45-45z" fill="#f6f6f6"/><path d="m329.996 480h-239.996c-27.6133 0-50-22.383-50-50v-380c0-27.6172 22.3867-50 50-50h300c27.613 0 50 22.3828 50 50v320zm-4.141-10 104.145-104.141v-315.859c0-22.0625-17.945-40-40-40h-300c-22.0547 0-40 17.9375-40 40v380c0 22.059 17.9453 40 40 40z" fill="#e0e0e0"/><g clip-path="url(#a)"><path d="m90 5c-24.8164 0-45 20.1875-45 45v380c0 24.816 20.1836 45 45 45h237.926l107.074-107.07v-317.93c0-24.8125-20.187-45-45-45z" fill="#94bcd4"/><path d="m329.996 480h-239.996c-27.6133 0-50-22.383-50-50v-380c0-27.6172 22.3867-50 50-50h300c27.613 0 50 22.3828 50 50v320zm-4.141-10 104.145-104.141v-315.859c0-22.0625-17.945-40-40-40h-300c-22.0547 0-40 17.9375-40 40v380c0 22.059 17.9453 40 40 40z" fill="#86aac0"/></g><g clip-path="url(#b)"><g clip-path="url(#c)"><path d="m344.352 384.973 96.793-96.789v96.789z" fill="#86aac0"/><path d="m450 370h-70c-27.613 0-50 22.383-50 50v70h120z" fill="#cadde9"/></g></g><path d="m138.953 414.629v-14.063c-6.238 3.75-11.703 5.625-16.39 5.625-4.688 0-8.438-1.621-11.25-4.843-2.813-3.223-4.219-7.559-4.219-13.008 0-5.156 1.48-9.277 4.437-12.363 2.961-3.094 6.914-4.637 11.867-4.637 4.336 0 9.524 1.746 15.555 5.223v-13.965c-6.765-2.266-12.406-3.387-16.918-3.387-7.762 0-14.355 2.84-19.773 8.543-5.4222 5.703-8.1292 12.656-8.1292 20.859 0 8.34 2.7578 15.41 8.2772 21.203 5.524 5.782 12.242 8.68 20.153 8.68 5.097 0 10.562-1.289 16.39-3.867" fill="#fff"/><path d="m180.703 412.473-7.734-8.489c-4.074 2.403-7 3.614-8.789 3.614-1.375 0-2.563-.528-3.559-1.563s-1.496-2.285-1.496-3.711c0-2.851 2.578-5.312 7.734-7.383 3.782-1.621 6.637-3.078 8.571-4.375 1.933-1.308 3.55-3.113 4.851-5.429 1.305-2.313 1.961-4.824 1.961-7.52 0-4.941-2-9.258-6.004-12.91-3.992-3.672-8.718-5.496-14.168-5.496-5.976 0-11.879 2.809-17.711 8.434l8.176 9.543c3.66-3.79 7.09-5.672 10.281-5.672 1.497 0 2.93.664 4.309 1.992 1.375 1.336 2.063 2.722 2.063 4.187 0 3.008-3.176 5.664-9.536 7.961-3.632 1.317-6.211 2.567-7.734 3.719s-2.809 2.844-3.844 5.059c-1.043 2.207-1.558 4.472-1.558 6.789 0 5.125 1.668 9.285 5.007 12.48 3.34 3.192 7.707 4.793 13.094 4.793 6.391 0 11.75-2.012 16.086-6.023" fill="#fff"/><path d="m223.551 412.473-7.735-8.489c-4.074 2.403-7.003 3.614-8.789 3.614-1.379 0-2.562-.528-3.558-1.563s-1.496-2.285-1.496-3.711c0-2.851 2.578-5.312 7.734-7.383 3.777-1.621 6.637-3.078 8.57-4.375 1.934-1.308 3.547-3.113 4.852-5.429 1.305-2.313 1.961-4.824 1.961-7.52 0-4.941-2-9.258-6.004-12.91-3.992-3.672-8.719-5.496-14.168-5.496-5.977 0-11.883 2.809-17.711 8.434l8.176 9.543c3.66-3.79 7.09-5.672 10.281-5.672 1.492 0 2.93.664 4.309 1.992 1.375 1.336 2.062 2.722 2.062 4.187 0 3.008-3.18 5.664-9.535 7.961-3.633 1.317-6.211 2.567-7.734 3.719-1.524 1.152-2.809 2.844-3.844 5.059-1.043 2.207-1.563 4.472-1.563 6.789 0 5.125 1.672 9.285 5.012 12.48 3.34 3.192 7.703 4.793 13.094 4.793 6.387 0 11.75-2.012 16.086-6.023" fill="#fff"/><g fill="#e0e0e0"><path d="m100 149.453v21.27c5.625.175 9.711 1.289 12.262 3.34 2.547 2.042 4.363 5.085 5.449 9.121 1.082 4.043 1.625 10.363 1.625 18.964v3.079c0 9.761.586 16.793 1.758 21.062 1.172 4.277 3.148 7.754 5.933 10.449 2.782 2.688 6.239 4.649 10.371 5.879 4.129 1.231 10.153 1.848 18.063 1.848h4.742v-21.098h-1.14c-7.09 0-11.676-.722-13.754-2.144-2.082-1.438-3.121-4.914-3.121-10.41-.235-19.915-1.551-32.454-3.958-37.637-2.402-5.188-6.558-9.563-12.476-13.137 7.144-4.043 11.672-9.719 13.578-17.012 1.902-7.304 2.856-18.574 2.856-33.816 0-5.449 1.097-8.918 3.296-10.3829 2.196-1.4648 6.664-2.1953 13.403-2.1953h1.316v-21.0976h-4.742c-10.316 0-17.844 1.25-22.59 3.7421-4.746 2.4922-8.187 5.8985-10.328 10.2032-2.137 4.3203-3.207 12.7775-3.207 25.3905v3.078c0 13.789-1.699 22.531-5.098 26.223-3.398 3.699-8.144 5.457-14.238 5.281"/><path d="m390 170.723v-21.27c-5.566-.176-9.625-1.289-12.172-3.34-2.551-2.058-4.367-5.105-5.449-9.16-1.086-4.043-1.625-10.383-1.625-19.004v-3.078c0-11.558-.719-19.2265-2.156-23.0155-1.434-3.7813-3.282-6.6524-5.535-8.625-2.258-1.961-5.141-3.7266-8.661-5.3203-3.511-1.5821-10.132-2.375-19.859-2.375h-4.66v21.0976h1.23c6.797 0 11.293.7305 13.492 2.1953 2.196 1.4649 3.293 4.9339 3.293 10.3829 0 16.121 1.028 27.676 3.079 34.644 2.05 6.985 6.472 12.375 13.269 16.184-6.558 3.926-10.883 8.77-12.961 14.539-2.082 5.774-3.211 17.844-3.387 36.235 0 5.496-1.05 8.972-3.164 10.41-2.105 1.422-6.707 2.144-13.796 2.144h-1.055v21.098h4.66c8.437 0 14.703-.676 18.809-2.024 4.097-1.347 7.484-3.437 10.148-6.281 2.668-2.832 4.543-6.355 5.625-10.574 1.086-4.207 1.629-10.996 1.629-20.359v-3.079c0-14.277 1.769-23.132 5.316-26.55 3.543-3.43 8.188-5.051 13.93-4.875"/><path d="m203.684 160c0-11.047-8.954-20-20-20-11.051 0-20 8.953-20 20s8.949 20 20 20c11.046 0 20-8.953 20-20"/><path d="m263.684 160c0-11.047-8.954-20-20-20-11.051 0-20 8.953-20 20s8.949 20 20 20c11.046 0 20-8.953 20-20"/><path d="m323.684 160c0-11.047-8.954-20-20-20-11.051 0-20 8.953-20 20s8.949 20 20 20c11.046 0 20-8.953 20-20"/></g></g></svg>