<svg enable-background="new 0 0 1024 1024" viewBox="0 0 1024 1024" xmlns="http://www.w3.org/2000/svg"><path d="m847 630.7-35.3 53.4h46.4v-32.7c0-5.4.2-13.4.7-23.7.4-10.4.8-16.4 1.1-18.1h-1.1c-3.3 7.2-7.2 14.3-11.8 21.1z"/><path d="m966.9 482.6h-70.9v-146.6c0-44-25.5-105.5-56.6-136.6l-142.8-142.8c-31.1-31.1-92.6-56.6-136.6-56.6h-480c-44 0-80 36-80 80v864c0 44 36 80 80 80h736c44 0 80-36 80-80v-80.5h70.9c31.4 0 57.1-25.7 57.1-57.1v-266.7c0-31.4-25.7-57.1-57.1-57.1zm-326.8-390c4.4 3.1 8.2 6.2 11.3 9.3l142.8 142.8c3.1 3.1 6.2 6.9 9.3 11.3h-163.4zm191.9 851.4c0 8.7-7.3 16-16 16h-736c-8.7 0-16-7.3-16-16v-864c0-8.7 7.3-16 16-16h480c4.8 0 10.2.6 16 1.7v254.3h254.3c1.1 5.8 1.7 11.2 1.7 16v146.6h-601.8c-31.4 0-57.1 25.7-57.1 57.1v266.8c0 31.4 25.7 57.1 57.1 57.1h601.8zm-98.6-320.9c0 20.7-6.5 36.6-19.4 47.6-13 11-31.4 16.5-55.3 16.5h-17.5v68.6h-40.9v-192.8h61.6c23.4 0 41.2 5 53.3 15.1 12.2 10 18.2 25 18.2 45zm-244.6-18.4-49.7 151h-37.4l-46.4-151.2h-1.2c1.7 30.8 2.5 51.3 2.5 61.6v89.6h-36.5v-192.7h55.6l45.6 147.4h.8l48.4-147.4h55.6v192.7h-38.1v-91.2c0-4.3.1-9.3.2-14.9s.7-20.6 1.8-44.8h-1.2zm432.3 111.1h-23.2v39.9h-39.8v-39.9h-82.3v-28.3l84.5-124.5h37.6v121.2h23.2z"/><path d="m684.3 603.3c-5.2-4.6-13.4-6.9-24.6-6.9h-18.6v57.2h13.4c12.6 0 22-2.5 28.2-7.4 6.2-5 9.4-12.2 9.4-21.7.1-9.6-2.5-16.6-7.8-21.2z"/></svg>