<svg fill="none" height="24" viewBox="0 0 24 24" width="24" xmlns="http://www.w3.org/2000/svg"><path d="m18 22h-12c-1.10457 0-2-.8954-2-2v-16.00001c0-1.10457.89543-2 2-2h7c.009-.00117.018-.00117.027 0h.006c.0094.00295.0192.00496.029.006.0882.00565.1753.02279.259.051h.015.015.012c.0185.01292.0358.0273.052.043.1089.04842.2082.11618.293.2l6 6c.0838.08478.1516.18405.2.293.009.022.016.043.023.066l.01.028c.0279.08339.0444.17018.049.258.0009.00996.0032.01973.007.029v.006c.0016.00655.0026.01325.003.02v11.00001c0 .5304-.2107 1.0391-.5858 1.4142s-.8838.5858-1.4142.5858zm-2.5-8c-.4539-.0244-.8898.1802-1.161.545-.2924.4609-.4324 1.0021-.4 1.547v.876c-.0283.5386.1237 1.0714.432 1.514.29.3491.7277.5411 1.181.518.2795.0028.5568-.0496.816-.154l.013-.005-.016.007c.2445-.1013.4607-.2605.63-.464v-2.011h-1.509v.742h.623v.893l-.078.06c-.1266.0827-.2759.1236-.427.117-.2378.0179-.4658-.0977-.592-.3-.1388-.3032-.2-.6362-.178-.969v-.883c-.0184-.3174.0385-.6347.166-.926.1027-.1908.3067-.3047.523-.292.1636-.0133.3242.0498.435.171.1165.1901.1771.4091.175.632h.867c.0025-.4452-.1467-.878-.423-1.227-.2868-.278-.6787-.4203-1.077-.391zm-8.5 3.4c-.00622.2963.06258.5894.2.852.12645.2338.31734.4264.55.555.23706.129.50311.1954.773.193.3658.0191.72393-.1096.994-.357.25411-.2661.38661-.6256.366-.993.01268-.3407-.09061-.6756-.293-.95-.2507-.2887-.57275-.5067-.934-.632-.19034-.0784-.36433-.1917-.513-.334-.09252-.0998-.14364-.231-.143-.367-.00758-.1473.03862-.2923.13-.408.09087-.1045.22475-.1612.363-.154.14825-.0076.29023.0605.377.181.09683.1532.14236.3332.13.514h.886c.00427-.2705-.05462-.5383-.172-.782-.10645-.2211-.27588-.4059-.487-.531-.21898-.1273-.46874-.192-.722-.187-.36949-.0114-.72863.123-1 .374-.26532.2578-.40825.6164-.393.986-.00619.3185.09646.6297.291.882.25772.2925.5847.5156.951.649.18588.0718.35579.1795.5.317.101.1265.15063.2865.139.448 0 .361-.157.544-.465.544-.1823.0167-.36178-.0537-.484-.19-.11315-.1831-.165-.3975-.148-.612zm3.182-3.332 1.26 4.866h.925l1.269-4.866h-.991l-.745 3.532-.737-3.529zm2.818-10.06801v5h5z" fill="#000"/></svg>